<svg viewBox="0 0 64 64" xmlns="http://www.w3.org/2000/svg">
  <defs>
    <!-- 渐变定义 -->
    <linearGradient id="leafIconGradient1" x1="0%" y1="0%" x2="100%" y2="100%">
      <stop offset="0%" style="stop-color:#ff6b35;stop-opacity:1" />
      <stop offset="50%" style="stop-color:#f7931e;stop-opacity:1" />
      <stop offset="100%" style="stop-color:#ffcc02;stop-opacity:1" />
    </linearGradient>
    
    <linearGradient id="leafIconGradient2" x1="0%" y1="0%" x2="100%" y2="100%">
      <stop offset="0%" style="stop-color:#dc2626;stop-opacity:1" />
      <stop offset="50%" style="stop-color:#ea580c;stop-opacity:1" />
      <stop offset="100%" style="stop-color:#f59e0b;stop-opacity:1" />
    </linearGradient>

    <radialGradient id="backgroundGradient" cx="50%" cy="50%" r="50%">
      <stop offset="0%" style="stop-color:#fafafa;stop-opacity:1" />
      <stop offset="100%" style="stop-color:#f5f5f5;stop-opacity:1" />
    </radialGradient>
  </defs>

  <!-- 背景圆形 -->
  <circle cx="32" cy="32" r="30" fill="url(#backgroundGradient)" stroke="#e5e7eb" stroke-width="2"/>

  <!-- 主要叶子形状 -->
  <path d="M20 45 Q15 35 20 25 Q25 15 35 20 Q40 25 37 35 Q33 45 20 45 Z" 
        fill="url(#leafIconGradient1)" 
        opacity="0.9"/>

  <!-- 第二片叶子 -->
  <path d="M30 50 Q25 40 27 30 Q30 20 40 22 Q45 27 43 37 Q40 50 30 50 Z" 
        fill="url(#leafIconGradient2)" 
        opacity="0.8"/>

  <!-- 叶子茎部 -->
  <line x1="35" y1="30" x2="37" y2="40" 
        stroke="#8b5cf6" 
        stroke-width="3" 
        stroke-linecap="round"/>

  <!-- 叶脉 -->
  <path d="M22 32 Q30 28 35 35" 
        stroke="#ffffff" 
        stroke-width="1" 
        stroke-opacity="0.6" 
        fill="none"/>
  
  <path d="M32 35 Q37 32 42 38" 
        stroke="#ffffff" 
        stroke-width="1" 
        stroke-opacity="0.6" 
        fill="none"/>
</svg> 